<mxfile host="Electron" modified="2024-06-05T11:48:15.156Z" agent="Mozilla/5.0 (Windows NT 10.0; Win64; x64) AppleWebKit/537.36 (KHTML, like Gecko) draw.io/24.0.4 Chrome/120.0.6099.109 Electron/28.1.0 Safari/537.36" etag="t8breTRD4E0UCFpBKpUO" version="24.0.4" type="device">
  <diagram name="第 1 页" id="SAHKPxjK9V1qAOfatdbY">
    <mxGraphModel dx="3015" dy="2055" grid="1" gridSize="10" guides="1" tooltips="1" connect="1" arrows="1" fold="1" page="1" pageScale="1" pageWidth="827" pageHeight="1169" math="0" shadow="0">
      <root>
        <mxCell id="0" />
        <mxCell id="1" parent="0" />
        <mxCell id="b9sYkB1GpHUD2K_iO5PB-35" value="" style="rounded=1;whiteSpace=wrap;html=1;movable=1;resizable=1;rotatable=1;deletable=1;editable=1;locked=0;connectable=1;fillColor=#dae8fc;strokeColor=#6c8ebf;shadow=0;opacity=50;absoluteArcSize=1;arcSize=12;" parent="1" vertex="1">
          <mxGeometry x="-20" y="-210" width="740" height="400" as="geometry" />
        </mxCell>
        <mxCell id="lv3CAIxyMZGmVp8VG3db-56" value="" style="rounded=1;whiteSpace=wrap;html=1;movable=1;resizable=1;rotatable=1;deletable=1;editable=1;locked=0;connectable=1;fillColor=#d5e8d4;strokeColor=#82b366;shadow=0;opacity=50;absoluteArcSize=1;arcSize=12;" parent="1" vertex="1">
          <mxGeometry x="170" y="-150" width="160" height="295" as="geometry" />
        </mxCell>
        <mxCell id="lv3CAIxyMZGmVp8VG3db-7" value="" style="rounded=1;whiteSpace=wrap;html=1;movable=1;resizable=1;rotatable=1;deletable=1;editable=1;locked=0;connectable=1;fillColor=#fff2cc;strokeColor=#d6b656;shadow=0;opacity=50;absoluteArcSize=1;arcSize=12;" parent="1" vertex="1">
          <mxGeometry x="401" y="-20" width="309" height="200" as="geometry" />
        </mxCell>
        <mxCell id="lv3CAIxyMZGmVp8VG3db-6" value="" style="rounded=1;whiteSpace=wrap;html=1;movable=1;resizable=1;rotatable=1;deletable=1;editable=1;locked=0;connectable=1;fillColor=#e1d5e7;strokeColor=#9673a6;shadow=0;opacity=50;absoluteArcSize=1;arcSize=12;" parent="1" vertex="1">
          <mxGeometry x="401" y="-170" width="279" height="140" as="geometry" />
        </mxCell>
        <mxCell id="b9sYkB1GpHUD2K_iO5PB-41" value="" style="rounded=1;whiteSpace=wrap;html=1;movable=1;resizable=1;rotatable=1;deletable=1;editable=1;locked=0;connectable=1;fillColor=#ffe6cc;strokeColor=#d79b00;shadow=0;opacity=50;absoluteArcSize=1;arcSize=12;" parent="1" vertex="1">
          <mxGeometry x="-10" y="-150" width="140" height="295" as="geometry" />
        </mxCell>
        <mxCell id="b9sYkB1GpHUD2K_iO5PB-42" value="&lt;span style=&quot;font-size: 19px;&quot;&gt;&lt;b&gt;&lt;font face=&quot;Lucida Console&quot;&gt;scene&lt;br&gt;&lt;/font&gt;&lt;/b&gt;&lt;/span&gt;" style="text;html=1;align=center;verticalAlign=middle;resizable=0;points=[];autosize=1;strokeColor=#6c8ebf;fillColor=#dae8fc;rounded=1;absoluteArcSize=1;arcSize=12;" parent="1" vertex="1">
          <mxGeometry x="-10" y="-200" width="80" height="40" as="geometry" />
        </mxCell>
        <mxCell id="lv3CAIxyMZGmVp8VG3db-1" value="&lt;span style=&quot;font-size: 19px;&quot;&gt;&lt;b&gt;&lt;font face=&quot;Lucida Console&quot;&gt;constitution tabular&lt;br&gt;&lt;/font&gt;&lt;/b&gt;&lt;/span&gt;" style="text;html=1;align=center;verticalAlign=middle;resizable=0;points=[];autosize=1;strokeColor=#9673a6;fillColor=#e1d5e7;rounded=1;absoluteArcSize=1;arcSize=12;" parent="1" vertex="1">
          <mxGeometry x="409" y="-160" width="260" height="40" as="geometry" />
        </mxCell>
        <mxCell id="lv3CAIxyMZGmVp8VG3db-2" value="&lt;span style=&quot;font-size: 19px;&quot;&gt;&lt;b&gt;&lt;font face=&quot;Lucida Console&quot;&gt;contact tabular&lt;br&gt;&lt;/font&gt;&lt;/b&gt;&lt;/span&gt;" style="text;html=1;align=center;verticalAlign=middle;resizable=0;points=[];autosize=1;strokeColor=#d6b656;fillColor=#fff2cc;rounded=1;absoluteArcSize=1;arcSize=12;" parent="1" vertex="1">
          <mxGeometry x="414" y="-10" width="200" height="40" as="geometry" />
        </mxCell>
        <mxCell id="lv3CAIxyMZGmVp8VG3db-8" value="&lt;span style=&quot;font-size: 19px;&quot;&gt;&lt;b&gt;&lt;font face=&quot;Lucida Console&quot;&gt;wood-wood&lt;br&gt;&lt;/font&gt;&lt;/b&gt;&lt;/span&gt;" style="text;html=1;align=center;verticalAlign=middle;resizable=1;points=[];autosize=0;strokeColor=#666666;fillColor=#f5f5f5;rounded=1;absoluteArcSize=1;arcSize=12;fontColor=#333333;imageAspect=1;" parent="1" vertex="1">
          <mxGeometry x="533" y="75" width="170" height="30" as="geometry" />
        </mxCell>
        <mxCell id="lv3CAIxyMZGmVp8VG3db-9" value="&lt;span style=&quot;font-size: 19px;&quot;&gt;&lt;b&gt;&lt;font face=&quot;Lucida Console&quot;&gt;wood-steel&lt;br&gt;&lt;/font&gt;&lt;/b&gt;&lt;/span&gt;" style="text;html=1;align=center;verticalAlign=middle;resizable=1;points=[];autosize=0;strokeColor=#666666;fillColor=#f5f5f5;rounded=1;absoluteArcSize=1;arcSize=12;fontColor=#333333;" parent="1" vertex="1">
          <mxGeometry x="533" y="105" width="170" height="30" as="geometry" />
        </mxCell>
        <mxCell id="lv3CAIxyMZGmVp8VG3db-10" value="&lt;span style=&quot;font-size: 19px;&quot;&gt;&lt;b&gt;&lt;font face=&quot;Lucida Console&quot;&gt;steel-steel&lt;br&gt;&lt;/font&gt;&lt;/b&gt;&lt;/span&gt;" style="text;html=1;align=center;verticalAlign=middle;resizable=1;points=[];autosize=0;strokeColor=#666666;fillColor=#f5f5f5;rounded=1;absoluteArcSize=1;arcSize=12;fontColor=#333333;" parent="1" vertex="1">
          <mxGeometry x="533" y="135" width="170" height="30" as="geometry" />
        </mxCell>
        <mxCell id="lv3CAIxyMZGmVp8VG3db-41" value="&lt;span style=&quot;font-size: 19px;&quot;&gt;&lt;b&gt;&lt;font face=&quot;Lucida Console&quot;&gt;element&lt;br&gt;&lt;/font&gt;&lt;/b&gt;&lt;/span&gt;" style="text;html=1;align=center;verticalAlign=middle;resizable=1;points=[];autosize=0;strokeColor=#d6b656;fillColor=#fff2cc;rounded=1;absoluteArcSize=1;arcSize=12;" parent="1" vertex="1">
          <mxGeometry x="414" y="40" width="91" height="30" as="geometry" />
        </mxCell>
        <mxCell id="lv3CAIxyMZGmVp8VG3db-42" value="&lt;span style=&quot;font-size: 19px;&quot;&gt;&lt;b&gt;&lt;font face=&quot;Lucida Console&quot;&gt;contact models&lt;br&gt;&lt;/font&gt;&lt;/b&gt;&lt;/span&gt;" style="text;html=1;align=center;verticalAlign=middle;resizable=1;points=[];autosize=0;strokeColor=#d6b656;fillColor=#fff2cc;rounded=1;absoluteArcSize=1;arcSize=12;" parent="1" vertex="1">
          <mxGeometry x="533" y="40" width="170" height="30" as="geometry" />
        </mxCell>
        <mxCell id="lv3CAIxyMZGmVp8VG3db-44" style="rounded=0;orthogonalLoop=1;jettySize=auto;html=1;fillColor=#e1d5e7;strokeColor=#9673a6;strokeWidth=3;endArrow=none;endFill=0;startArrow=none;startFill=0;endSize=9;startSize=9;exitX=0.994;exitY=0.509;exitDx=0;exitDy=0;exitPerimeter=0;" parent="1" source="b9sYkB1GpHUD2K_iO5PB-46" edge="1">
          <mxGeometry relative="1" as="geometry">
            <mxPoint x="410" y="-94" as="targetPoint" />
          </mxGeometry>
        </mxCell>
        <mxCell id="lv3CAIxyMZGmVp8VG3db-50" style="rounded=0;orthogonalLoop=1;jettySize=auto;html=1;fillColor=#e1d5e7;strokeColor=#9673a6;strokeWidth=2;endArrow=none;endFill=0;startArrow=none;startFill=0;endSize=9;startSize=9;exitX=1;exitY=0.5;exitDx=0;exitDy=0;exitPerimeter=0;entryX=0.003;entryY=0.347;entryDx=0;entryDy=0;entryPerimeter=0;opacity=60;" parent="1" source="b9sYkB1GpHUD2K_iO5PB-49" target="lv3CAIxyMZGmVp8VG3db-4" edge="1">
          <mxGeometry relative="1" as="geometry">
            <mxPoint x="328" y="-41" as="sourcePoint" />
            <mxPoint x="419" y="-43" as="targetPoint" />
          </mxGeometry>
        </mxCell>
        <mxCell id="lv3CAIxyMZGmVp8VG3db-51" style="rounded=0;orthogonalLoop=1;jettySize=auto;html=1;fillColor=#e1d5e7;strokeColor=#9673a6;strokeWidth=2;endArrow=none;endFill=0;startArrow=none;startFill=0;endSize=9;startSize=9;exitX=1;exitY=0.5;exitDx=0;exitDy=0;exitPerimeter=0;entryX=0.002;entryY=0.491;entryDx=0;entryDy=0;entryPerimeter=0;opacity=60;" parent="1" source="b9sYkB1GpHUD2K_iO5PB-37" target="lv3CAIxyMZGmVp8VG3db-4" edge="1">
          <mxGeometry relative="1" as="geometry">
            <mxPoint x="330" y="20" as="sourcePoint" />
            <mxPoint x="420" y="-86" as="targetPoint" />
          </mxGeometry>
        </mxCell>
        <mxCell id="lv3CAIxyMZGmVp8VG3db-47" style="rounded=0;orthogonalLoop=1;jettySize=auto;html=1;fillColor=#e1d5e7;strokeColor=#9673a6;strokeWidth=2;endArrow=none;endFill=0;startArrow=none;startFill=0;endSize=9;startSize=9;exitX=0.986;exitY=0.471;exitDx=0;exitDy=0;exitPerimeter=0;opacity=60;" parent="1" source="b9sYkB1GpHUD2K_iO5PB-47" edge="1">
          <mxGeometry relative="1" as="geometry">
            <mxPoint x="328" y="-100" as="sourcePoint" />
            <mxPoint x="410" y="-90" as="targetPoint" />
          </mxGeometry>
        </mxCell>
        <mxCell id="lv3CAIxyMZGmVp8VG3db-52" style="rounded=0;orthogonalLoop=1;jettySize=auto;html=1;fillColor=#fff2cc;strokeColor=#d6b656;strokeWidth=3;endArrow=none;endFill=0;startArrow=none;startFill=0;endSize=9;startSize=9;exitX=0.986;exitY=0.474;exitDx=0;exitDy=0;exitPerimeter=0;entryX=0.026;entryY=0.577;entryDx=0;entryDy=0;entryPerimeter=0;" parent="1" source="b9sYkB1GpHUD2K_iO5PB-46" target="lv3CAIxyMZGmVp8VG3db-39" edge="1">
          <mxGeometry relative="1" as="geometry">
            <mxPoint x="320" y="-110" as="sourcePoint" />
            <mxPoint x="420" y="-84" as="targetPoint" />
          </mxGeometry>
        </mxCell>
        <mxCell id="lv3CAIxyMZGmVp8VG3db-53" style="rounded=0;orthogonalLoop=1;jettySize=auto;html=1;fillColor=#fff2cc;strokeColor=#d6b656;strokeWidth=2;endArrow=none;endFill=0;startArrow=none;startFill=0;endSize=9;startSize=9;entryX=-0.003;entryY=0.437;entryDx=0;entryDy=0;entryPerimeter=0;opacity=60;exitX=1.004;exitY=0.456;exitDx=0;exitDy=0;exitPerimeter=0;" parent="1" source="b9sYkB1GpHUD2K_iO5PB-47" target="lv3CAIxyMZGmVp8VG3db-40" edge="1">
          <mxGeometry relative="1" as="geometry">
            <mxPoint x="320" y="-50" as="sourcePoint" />
            <mxPoint x="422" y="24" as="targetPoint" />
          </mxGeometry>
        </mxCell>
        <mxCell id="lv3CAIxyMZGmVp8VG3db-54" style="rounded=0;orthogonalLoop=1;jettySize=auto;html=1;fillColor=#fff2cc;strokeColor=#d6b656;strokeWidth=2;endArrow=none;endFill=0;startArrow=none;startFill=0;endSize=9;startSize=9;exitX=0.988;exitY=0.525;exitDx=0;exitDy=0;exitPerimeter=0;opacity=60;entryX=0.009;entryY=0.482;entryDx=0;entryDy=0;entryPerimeter=0;" parent="1" source="b9sYkB1GpHUD2K_iO5PB-49" target="lv3CAIxyMZGmVp8VG3db-39" edge="1">
          <mxGeometry relative="1" as="geometry">
            <mxPoint x="330" y="-40" as="sourcePoint" />
            <mxPoint x="422" y="73" as="targetPoint" />
          </mxGeometry>
        </mxCell>
        <mxCell id="lv3CAIxyMZGmVp8VG3db-55" style="rounded=0;orthogonalLoop=1;jettySize=auto;html=1;fillColor=#fff2cc;strokeColor=#d6b656;strokeWidth=2;endArrow=none;endFill=0;startArrow=none;startFill=0;endSize=9;startSize=9;entryX=0.013;entryY=0.528;entryDx=0;entryDy=0;entryPerimeter=0;opacity=60;exitX=1;exitY=0.456;exitDx=0;exitDy=0;exitPerimeter=0;" parent="1" source="b9sYkB1GpHUD2K_iO5PB-37" target="lv3CAIxyMZGmVp8VG3db-40" edge="1">
          <mxGeometry relative="1" as="geometry">
            <mxPoint x="330" y="-40" as="sourcePoint" />
            <mxPoint x="422" y="73" as="targetPoint" />
          </mxGeometry>
        </mxCell>
        <mxCell id="lv3CAIxyMZGmVp8VG3db-57" style="rounded=0;orthogonalLoop=1;jettySize=auto;html=1;fillColor=#d5e8d4;strokeColor=#82b366;strokeWidth=3;endArrow=none;endFill=0;startArrow=none;startFill=0;endSize=9;startSize=9;" parent="1" source="b9sYkB1GpHUD2K_iO5PB-43" target="b9sYkB1GpHUD2K_iO5PB-46" edge="1">
          <mxGeometry relative="1" as="geometry">
            <mxPoint x="189" y="-255" as="sourcePoint" />
            <mxPoint x="311" y="-135" as="targetPoint" />
          </mxGeometry>
        </mxCell>
        <mxCell id="lv3CAIxyMZGmVp8VG3db-58" style="rounded=0;orthogonalLoop=1;jettySize=auto;html=1;fillColor=#d5e8d4;strokeColor=#82b366;strokeWidth=2;endArrow=none;endFill=0;startArrow=none;startFill=0;endSize=9;startSize=9;opacity=80;entryX=0.019;entryY=0.505;entryDx=0;entryDy=0;entryPerimeter=0;exitX=1.004;exitY=0.452;exitDx=0;exitDy=0;exitPerimeter=0;" parent="1" source="b9sYkB1GpHUD2K_iO5PB-44" target="b9sYkB1GpHUD2K_iO5PB-47" edge="1">
          <mxGeometry relative="1" as="geometry">
            <mxPoint x="328" y="4" as="sourcePoint" />
            <mxPoint x="420" y="-35" as="targetPoint" />
          </mxGeometry>
        </mxCell>
        <mxCell id="lv3CAIxyMZGmVp8VG3db-59" style="rounded=0;orthogonalLoop=1;jettySize=auto;html=1;fillColor=#d5e8d4;strokeColor=#82b366;strokeWidth=2;endArrow=none;endFill=0;startArrow=none;startFill=0;endSize=9;startSize=9;opacity=80;exitX=1;exitY=0.507;exitDx=0;exitDy=0;exitPerimeter=0;entryX=-0.002;entryY=0.525;entryDx=0;entryDy=0;entryPerimeter=0;" parent="1" source="b9sYkB1GpHUD2K_iO5PB-44" target="b9sYkB1GpHUD2K_iO5PB-49" edge="1">
          <mxGeometry relative="1" as="geometry">
            <mxPoint x="130" y="5" as="sourcePoint" />
            <mxPoint x="190" y="5" as="targetPoint" />
          </mxGeometry>
        </mxCell>
        <mxCell id="lv3CAIxyMZGmVp8VG3db-60" style="rounded=0;orthogonalLoop=1;jettySize=auto;html=1;fillColor=#d5e8d4;strokeColor=#82b366;strokeWidth=2;endArrow=none;endFill=0;startArrow=none;startFill=0;endSize=9;startSize=9;opacity=80;" parent="1" edge="1">
          <mxGeometry relative="1" as="geometry">
            <mxPoint x="120" y="115" as="sourcePoint" />
            <mxPoint x="180" y="115" as="targetPoint" />
          </mxGeometry>
        </mxCell>
        <mxCell id="lv3CAIxyMZGmVp8VG3db-39" value="&lt;span style=&quot;font-size: 19px;&quot;&gt;&lt;b&gt;&lt;font face=&quot;Lucida Console&quot;&gt;wood&lt;br&gt;&lt;/font&gt;&lt;/b&gt;&lt;/span&gt;" style="text;html=1;align=center;verticalAlign=middle;resizable=1;points=[];autosize=0;strokeColor=#666666;fillColor=#f5f5f5;rounded=1;absoluteArcSize=1;arcSize=12;fontColor=#333333;imageAspect=1;" parent="1" vertex="1">
          <mxGeometry x="414" y="75" width="90" height="30" as="geometry" />
        </mxCell>
        <mxCell id="lv3CAIxyMZGmVp8VG3db-3" value="&lt;span style=&quot;font-size: 19px;&quot;&gt;&lt;b&gt;&lt;font face=&quot;Lucida Console&quot;&gt;affine body&lt;br&gt;&lt;/font&gt;&lt;/b&gt;&lt;/span&gt;" style="text;html=1;align=center;verticalAlign=middle;resizable=1;points=[];autosize=0;strokeColor=#666666;fillColor=#f5f5f5;rounded=1;absoluteArcSize=1;arcSize=12;fontColor=#333333;" parent="1" vertex="1">
          <mxGeometry x="409" y="-110" width="261" height="30" as="geometry" />
        </mxCell>
        <mxCell id="lv3CAIxyMZGmVp8VG3db-4" value="&lt;span style=&quot;font-size: 19px;&quot;&gt;&lt;b&gt;&lt;font face=&quot;Lucida Console&quot;&gt;neo-hookean&lt;br&gt;&lt;/font&gt;&lt;/b&gt;&lt;/span&gt;" style="text;html=1;align=center;verticalAlign=middle;resizable=1;points=[];autosize=0;strokeColor=#666666;fillColor=#f5f5f5;rounded=1;absoluteArcSize=1;arcSize=12;fontColor=#333333;" parent="1" vertex="1">
          <mxGeometry x="409" y="-70" width="261" height="30" as="geometry" />
        </mxCell>
        <mxCell id="lv3CAIxyMZGmVp8VG3db-40" value="&lt;span style=&quot;font-size: 19px;&quot;&gt;&lt;b&gt;&lt;font face=&quot;Lucida Console&quot;&gt;steel&lt;br&gt;&lt;/font&gt;&lt;/b&gt;&lt;/span&gt;" style="text;html=1;align=center;verticalAlign=middle;resizable=1;points=[];autosize=0;strokeColor=#666666;fillColor=#f5f5f5;rounded=1;absoluteArcSize=1;arcSize=12;fontColor=#333333;imageAspect=1;" parent="1" vertex="1">
          <mxGeometry x="415" y="115" width="90" height="30" as="geometry" />
        </mxCell>
        <mxCell id="b9sYkB1GpHUD2K_iO5PB-37" value="&lt;span style=&quot;font-size: 19px;&quot;&gt;&lt;b&gt;&lt;font face=&quot;Lucida Console&quot;&gt;3:geometry&lt;br&gt;&lt;/font&gt;&lt;/b&gt;&lt;/span&gt;" style="text;html=1;align=center;verticalAlign=middle;resizable=1;points=[];autosize=0;strokeColor=#666666;fillColor=#f5f5f5;rounded=1;absoluteArcSize=1;arcSize=12;fontColor=#333333;" parent="1" vertex="1">
          <mxGeometry x="180" y="100" width="140" height="35" as="geometry" />
        </mxCell>
        <mxCell id="b9sYkB1GpHUD2K_iO5PB-43" value="&lt;span style=&quot;font-size: 19px;&quot;&gt;&lt;b&gt;&lt;font face=&quot;Lucida Console&quot;&gt;0:object&lt;br&gt;&lt;/font&gt;&lt;/b&gt;&lt;/span&gt;" style="text;html=1;align=center;verticalAlign=middle;resizable=1;points=[];autosize=0;strokeColor=#666666;fillColor=#f5f5f5;rounded=1;absoluteArcSize=1;arcSize=12;fontColor=#333333;" parent="1" vertex="1">
          <mxGeometry y="-80" width="120" height="35" as="geometry" />
        </mxCell>
        <mxCell id="b9sYkB1GpHUD2K_iO5PB-44" value="&lt;span style=&quot;font-size: 19px;&quot;&gt;&lt;b&gt;&lt;font face=&quot;Lucida Console&quot;&gt;1:object&lt;br&gt;&lt;/font&gt;&lt;/b&gt;&lt;/span&gt;" style="text;html=1;align=center;verticalAlign=middle;resizable=1;points=[];autosize=0;strokeColor=#666666;fillColor=#f5f5f5;rounded=1;absoluteArcSize=1;arcSize=12;fontColor=#333333;" parent="1" vertex="1">
          <mxGeometry y="10" width="120" height="35" as="geometry" />
        </mxCell>
        <mxCell id="b9sYkB1GpHUD2K_iO5PB-47" value="&lt;span style=&quot;font-size: 19px;&quot;&gt;&lt;b&gt;&lt;font face=&quot;Lucida Console&quot;&gt;1:geometry&lt;br&gt;&lt;/font&gt;&lt;/b&gt;&lt;/span&gt;" style="text;html=1;align=center;verticalAlign=middle;resizable=1;points=[];autosize=0;strokeColor=#666666;fillColor=#f5f5f5;rounded=1;absoluteArcSize=1;arcSize=12;fontColor=#333333;" parent="1" vertex="1">
          <mxGeometry x="180" y="-20" width="140" height="35" as="geometry" />
        </mxCell>
        <mxCell id="b9sYkB1GpHUD2K_iO5PB-48" value="&lt;span style=&quot;font-size: 19px;&quot;&gt;&lt;b&gt;&lt;font face=&quot;Lucida Console&quot;&gt;2:object&lt;br&gt;&lt;/font&gt;&lt;/b&gt;&lt;/span&gt;" style="text;html=1;align=center;verticalAlign=middle;resizable=1;points=[];autosize=0;strokeColor=#666666;fillColor=#f5f5f5;rounded=1;absoluteArcSize=1;arcSize=12;fontColor=#333333;" parent="1" vertex="1">
          <mxGeometry y="100" width="120" height="35" as="geometry" />
        </mxCell>
        <mxCell id="b9sYkB1GpHUD2K_iO5PB-49" value="&lt;span style=&quot;font-size: 19px;&quot;&gt;&lt;b&gt;&lt;font face=&quot;Lucida Console&quot;&gt;2:geometry&lt;br&gt;&lt;/font&gt;&lt;/b&gt;&lt;/span&gt;" style="text;html=1;align=center;verticalAlign=middle;resizable=1;points=[];autosize=0;strokeColor=#666666;fillColor=#f5f5f5;rounded=1;absoluteArcSize=1;arcSize=12;fontColor=#333333;" parent="1" vertex="1">
          <mxGeometry x="180" y="40" width="140" height="35" as="geometry" />
        </mxCell>
        <mxCell id="b9sYkB1GpHUD2K_iO5PB-46" value="&lt;span style=&quot;font-size: 19px;&quot;&gt;&lt;b&gt;&lt;font face=&quot;Lucida Console&quot;&gt;0:geometry&lt;br&gt;&lt;/font&gt;&lt;/b&gt;&lt;/span&gt;" style="text;html=1;align=center;verticalAlign=middle;resizable=1;points=[];autosize=0;strokeColor=#666666;fillColor=#f5f5f5;rounded=1;absoluteArcSize=1;arcSize=12;fontColor=#333333;" parent="1" vertex="1">
          <mxGeometry x="180" y="-80" width="140" height="35" as="geometry" />
        </mxCell>
        <mxCell id="lv3CAIxyMZGmVp8VG3db-61" value="&lt;span style=&quot;font-size: 19px;&quot;&gt;&lt;b&gt;&lt;font face=&quot;Lucida Console&quot;&gt;objects&lt;br&gt;&lt;/font&gt;&lt;/b&gt;&lt;/span&gt;" style="text;html=1;align=center;verticalAlign=middle;resizable=0;points=[];autosize=1;strokeColor=#d79b00;fillColor=#ffe6cc;rounded=1;absoluteArcSize=1;arcSize=12;" parent="1" vertex="1">
          <mxGeometry y="-140" width="110" height="40" as="geometry" />
        </mxCell>
        <mxCell id="lv3CAIxyMZGmVp8VG3db-62" value="&lt;span style=&quot;font-size: 19px;&quot;&gt;&lt;b&gt;&lt;font face=&quot;Lucida Console&quot;&gt;geometries&lt;br&gt;&lt;/font&gt;&lt;/b&gt;&lt;/span&gt;" style="text;html=1;align=center;verticalAlign=middle;resizable=0;points=[];autosize=1;strokeColor=#82b366;fillColor=#d5e8d4;rounded=1;absoluteArcSize=1;arcSize=12;" parent="1" vertex="1">
          <mxGeometry x="180" y="-140" width="140" height="40" as="geometry" />
        </mxCell>
        <mxCell id="QdW892PC0uTMG-nPeLor-2" value="&lt;b style=&quot;font-size: 19px; text-wrap: nowrap;&quot;&gt;&lt;font face=&quot;Lucida Console&quot;&gt;world&lt;/font&gt;&lt;/b&gt;" style="rounded=1;whiteSpace=wrap;html=1;movable=1;resizable=1;rotatable=1;deletable=1;editable=1;locked=0;connectable=1;fillColor=#ffe6cc;strokeColor=#d79b00;shadow=0;absoluteArcSize=1;arcSize=12;" vertex="1" parent="1">
          <mxGeometry x="730" y="-210" width="70" height="400" as="geometry" />
        </mxCell>
        <mxCell id="QdW892PC0uTMG-nPeLor-4" value="" style="rounded=1;whiteSpace=wrap;html=1;movable=1;resizable=1;rotatable=1;deletable=1;editable=1;locked=0;connectable=1;fillColor=#d5e8d4;strokeColor=#82b366;shadow=0;opacity=50;absoluteArcSize=1;arcSize=12;" vertex="1" parent="1">
          <mxGeometry x="810" y="-160" width="180" height="350" as="geometry" />
        </mxCell>
        <mxCell id="QdW892PC0uTMG-nPeLor-5" value="&lt;span style=&quot;font-size: 19px;&quot;&gt;&lt;b&gt;&lt;font face=&quot;Lucida Console&quot;&gt;backend&lt;br&gt;&lt;/font&gt;&lt;/b&gt;&lt;/span&gt;" style="text;html=1;align=center;verticalAlign=middle;resizable=0;points=[];autosize=1;strokeColor=#82b366;fillColor=#d5e8d4;rounded=1;absoluteArcSize=1;arcSize=12;" vertex="1" parent="1">
          <mxGeometry x="845" y="-150" width="110" height="40" as="geometry" />
        </mxCell>
        <mxCell id="QdW892PC0uTMG-nPeLor-6" value="&lt;font face=&quot;Lucida Console&quot;&gt;&lt;span style=&quot;font-size: 19px;&quot;&gt;&lt;b&gt;none&lt;/b&gt;&lt;/span&gt;&lt;/font&gt;" style="text;html=1;align=center;verticalAlign=middle;resizable=1;points=[];autosize=0;strokeColor=#666666;fillColor=#f5f5f5;rounded=1;absoluteArcSize=1;arcSize=12;fontColor=#333333;" vertex="1" parent="1">
          <mxGeometry x="840" y="-100" width="120" height="35" as="geometry" />
        </mxCell>
        <mxCell id="QdW892PC0uTMG-nPeLor-7" value="&lt;font face=&quot;Lucida Console&quot;&gt;&lt;span style=&quot;font-size: 19px;&quot;&gt;&lt;b&gt;cuda&lt;/b&gt;&lt;/span&gt;&lt;/font&gt;" style="text;html=1;align=center;verticalAlign=middle;resizable=1;points=[];autosize=0;strokeColor=#666666;fillColor=#f5f5f5;rounded=1;absoluteArcSize=1;arcSize=12;fontColor=#333333;" vertex="1" parent="1">
          <mxGeometry x="840" y="-55" width="120" height="35" as="geometry" />
        </mxCell>
        <mxCell id="QdW892PC0uTMG-nPeLor-8" value="&lt;font face=&quot;Lucida Console&quot;&gt;&lt;span style=&quot;font-size: 19px;&quot;&gt;&lt;b&gt;tbb&lt;/b&gt;&lt;/span&gt;&lt;/font&gt;" style="text;html=1;align=center;verticalAlign=middle;resizable=1;points=[];autosize=0;strokeColor=#666666;fillColor=#f5f5f5;rounded=1;absoluteArcSize=1;arcSize=12;fontColor=#333333;" vertex="1" parent="1">
          <mxGeometry x="840" y="-10" width="120" height="35" as="geometry" />
        </mxCell>
        <mxCell id="QdW892PC0uTMG-nPeLor-9" value="&lt;b style=&quot;font-size: 19px; text-wrap: nowrap;&quot;&gt;&lt;font face=&quot;Lucida Console&quot;&gt;Engine&lt;/font&gt;&lt;/b&gt;" style="rounded=1;whiteSpace=wrap;html=1;movable=1;resizable=1;rotatable=1;deletable=1;editable=1;locked=0;connectable=1;fillColor=#dae8fc;strokeColor=#6c8ebf;shadow=0;opacity=50;absoluteArcSize=1;arcSize=12;" vertex="1" parent="1">
          <mxGeometry x="810" y="-210" width="180" height="40" as="geometry" />
        </mxCell>
        <mxCell id="QdW892PC0uTMG-nPeLor-10" value="&lt;font face=&quot;Lucida Console&quot;&gt;&lt;span style=&quot;font-size: 19px;&quot;&gt;&lt;b&gt;...&lt;/b&gt;&lt;/span&gt;&lt;/font&gt;" style="text;html=1;align=center;verticalAlign=middle;resizable=1;points=[];autosize=0;strokeColor=#666666;fillColor=#f5f5f5;rounded=1;absoluteArcSize=1;arcSize=12;fontColor=#333333;" vertex="1" parent="1">
          <mxGeometry x="840" y="37.5" width="120" height="142.5" as="geometry" />
        </mxCell>
      </root>
    </mxGraphModel>
  </diagram>
</mxfile>
